<svg width="18" height="16" viewBox="0 0 18 16" fill="none" xmlns="http://www.w3.org/2000/svg">
<path d="M12.75 0.5C11.3 0.5 9.90832 1.175 8.99999 2.24167C8.09166 1.175 6.69999 0.5 5.24999 0.5C2.68332 0.5 0.666656 2.51667 0.666656 5.08333C0.666656 8.23333 3.49999 10.8 7.79166 14.7L8.32706 15.1837C8.70887 15.5287 9.29012 15.5276 9.67062 15.1812L10.2083 14.6917C14.5 10.8 17.3333 8.23333 17.3333 5.08333C17.3333 2.51667 15.3167 0.5 12.75 0.5ZM9.08332 13.4583L8.99999 13.5417L8.91666 13.4583C4.94999 9.86667 2.33332 7.49167 2.33332 5.08333C2.33332 3.41667 3.58332 2.16667 5.24999 2.16667C6.26298 2.16667 7.2552 2.68069 7.8455 3.45874C8.12837 3.83158 8.53351 4.13333 9.0015 4.13333C9.47213 4.13333 9.87886 3.82807 10.163 3.45289C10.7498 2.67812 11.7395 2.16667 12.75 2.16667C14.4167 2.16667 15.6667 3.41667 15.6667 5.08333C15.6667 7.49167 13.05 9.86667 9.08332 13.4583Z" fill="#111113" fill-opacity="0.4"/>
</svg>
